<svg version="1.1" width="933.333" height="933.333" viewBox="0 0 700 700" xmlns="http://www.w3.org/2000/svg" xmlns:xlink="http://www.w3.org/1999/xlink" overflow="hidden"><defs><symbol id="y" overflow="visible"><path d=" M 18.766 -1.125 C 17.7973 -0.625 16.7855 -0.25 15.7348 0 C 14.6918 0.25781 13.5981 0.39062 12.4536 0.39062 C 9.0552 0.39062 6.3638 -0.55469 4.3755 -2.45318 C 2.3833 -4.35938 1.3911 -6.93758 1.3911 -10.1876 C 1.3911 -13.4454 2.38329 -16.0235 4.3755 -17.922 C 6.3638 -19.8282 9.0552 -20.7814 12.4536 -20.7814 C 13.5981 -20.7814 14.6919 -20.6486 15.7348 -20.3908 C 16.7856 -20.1408 17.7973 -19.7658 18.766 -19.2658 L 18.766 -15.047 C 17.7855 -15.7032 16.8207 -16.1876 15.8754 -16.5001 C 14.9262 -16.8126 13.9262 -16.9688 12.8754 -16.9688 C 11.0004 -16.9688 9.5238 -16.3633 8.4535 -15.1563 C 7.3793 -13.9571 6.8441 -12.3008 6.8441 -10.1875 C 6.8441 -8.08201 7.37926 -6.42581 8.4535 -5.21871 C 9.5238 -4.01951 11.0004 -3.42181 12.8754 -3.42181 C 13.9262 -3.42181 14.9262 -3.57025 15.8754 -3.87493 C 16.8207 -4.18743 17.7856 -4.67571 18.766 -5.34373 Z"/></symbol><symbol id="d" overflow="visible"><path d=" M 13.734 -11.141 C 13.2965 -11.3363 12.8629 -11.4847 12.4371 -11.5785 C 12.0191 -11.6801 11.5973 -11.7347 11.1715 -11.7347 C 9.9098 -11.7347 8.941 -11.3285 8.2653 -10.516 C 7.58561 -9.71126 7.2497 -8.56285 7.2497 -7.06285 L 7.2497 -0.00035 L 2.3591 -0.00035 L 2.3591 -15.3124 L 7.2497 -15.3124 L 7.2497 -12.7968 C 7.8747 -13.7968 8.5935 -14.5233 9.4059 -14.9843 C 10.2262 -15.453 11.2067 -15.6874 12.3434 -15.6874 C 12.5075 -15.6874 12.6872 -15.6757 12.8747 -15.6561 C 13.07 -15.6444 13.3512 -15.6171 13.7184 -15.578 Z"/></symbol><symbol id="a" overflow="visible"><path d=" M 17.641 -7.7031 L 17.641 -6.2969 L 6.188 -6.2969 C 6.313 -5.1485 6.72706 -4.2891 7.438 -3.7188 C 8.14503 -3.14458 9.1411 -2.85942 10.4224 -2.85942 C 11.4536 -2.85942 12.5044 -3.00786 13.5786 -3.31254 C 14.6606 -3.62504 15.77 -4.08598 16.9067 -4.70314 L 16.9067 -0.93754 C 15.7505 -0.50004 14.5942 -0.17192 13.4379 0.04684 C 12.2817 0.2734 11.1254 0.39059 9.9691 0.39059 C 7.1957 0.39059 5.0394 -0.31253 3.5003 -1.71881 C 1.9691 -3.12501 1.2034 -5.09771 1.2034 -7.64071 C 1.2034 -10.1407 1.95731 -12.1016 3.469 -13.5313 C 4.9768 -14.9688 7.051 -15.6875 9.6878 -15.6875 C 12.094 -15.6875 14.0198 -14.957 15.469 -13.5 C 16.9143 -12.0508 17.6409 -10.1172 17.6409 -7.70311 Z M 12.6098 -9.3281 C 12.6098 -10.2539 12.3364 -11 11.7973 -11.5625 C 11.2543 -12.1328 10.5473 -12.4219 9.6723 -12.4219 C 8.72308 -12.4219 7.9535 -12.1563 7.3598 -11.625 C 6.7661 -11.0937 6.39496 -10.3281 6.2504 -9.3281 Z"/></symbol><symbol id="e" overflow="visible"><path d=" M 9.2188 -6.8906 C 8.1954 -6.8906 7.4258 -6.71872 6.9063 -6.37498 C 6.39458 -6.03123 6.14068 -5.51951 6.14068 -4.84378 C 6.14068 -4.21878 6.34771 -3.72658 6.76568 -3.37498 C 7.17974 -3.03123 7.75396 -2.85936 8.48448 -2.85936 C 9.41026 -2.85936 10.1876 -3.18748 10.8126 -3.84374 C 11.4454 -4.5078 11.7657 -5.33594 11.7657 -6.32814 L 11.7657 -6.89064 Z M 16.6876 -8.7344 L 16.6876 0 L 11.7657 0 L 11.7657 -2.2656 C 11.1095 -1.33591 10.3673 -0.6601 9.5469 -0.2344 C 8.72268 0.17966 7.7227 0.3906 6.5469 0.3906 C 4.961 0.3906 3.6758 -0.06643 2.6875 -0.9844 C 1.69531 -1.91018 1.2031 -3.1133 1.2031 -4.5938 C 1.2031 -6.3829 1.81638 -7.6954 3.0469 -8.5313 C 4.2852 -9.37505 6.2266 -9.7969 8.875 -9.7969 L 11.7656 -9.7969 L 11.7656 -10.1875 C 11.7656 -10.9571 11.457 -11.5195 10.8437 -11.875 C 10.2265 -12.2383 9.27342 -12.4219 7.98432 -12.4219 C 6.92962 -12.4219 5.95312 -12.3164 5.04682 -12.1094 C 4.14838 -11.8985 3.31632 -11.586 2.54682 -11.1719 L 2.54682 -14.9063 C 3.58592 -15.1563 4.63272 -15.3477 5.68742 -15.4844 C 6.74992 -15.6172 7.81242 -15.6875 8.87492 -15.6875 C 11.6327 -15.6875 13.6249 -15.1407 14.8437 -14.0469 C 16.0703 -12.961 16.6875 -11.1914 16.6875 -8.73444 Z"/></symbol><symbol id="c" overflow="visible"><path d=" M 7.7031 -19.656 L 7.7031 -15.3122 L 12.75 -15.3122 L 12.75 -11.8122 L 7.7031 -11.8122 L 7.7031 -5.3122 C 7.7031 -4.60126 7.84372 -4.1247 8.12498 -3.8747 C 8.40624 -3.6247 8.96092 -3.4997 9.79688 -3.4997 L 12.3125 -3.4997 L 12.3125 0.0003 L 8.12498 0.0003 C 6.18748 0.0003 4.81248 -0.39814 3.99998 -1.2028 C 3.19529 -2.0153 2.79688 -3.3825 2.79688 -5.3122 L 2.79688 -11.8122 L 0.37498 -11.8122 L 0.37498 -15.3122 L 2.79688 -15.3122 L 2.79688 -19.656 Z"/></symbol><symbol id="l" overflow="visible"><path d=" M 12.766 -13.078 L 12.766 -21.2811 L 17.6879 -21.2811 L 17.6879 -0.0001 L 12.766 -0.0001 L 12.766 -2.2189 C 12.098 -1.31265 11.3598 -0.6486 10.5472 -0.2345 C 9.7346 0.1796 8.7894 0.3905 7.7191 0.3905 C 5.8324 0.3905 4.2855 -0.3595 3.0785 -1.8595 C 1.8676 -3.3595 1.266 -5.2853 1.266 -7.6407 C 1.266 -10.004 1.86756 -11.9376 3.0785 -13.4376 C 4.2855 -14.9376 5.8324 -15.6876 7.7191 -15.6876 C 8.7816 -15.6876 9.7191 -15.4728 10.5316 -15.047 C 11.3519 -14.6173 12.098 -13.9611 12.766 -13.0782 Z M 9.5472 -3.1561 C 10.5863 -3.1561 11.3831 -3.53501 11.9378 -4.2967 C 12.4886 -5.06623 12.7659 -6.1795 12.7659 -7.6405 C 12.7659 -9.0975 12.4886 -10.2069 11.9378 -10.9686 C 11.3831 -11.7381 10.5862 -12.1248 9.5472 -12.1248 C 8.5042 -12.1248 7.7074 -11.7381 7.1566 -10.9686 C 6.60191 -10.2069 6.32848 -9.0975 6.32848 -7.6405 C 6.32848 -6.1796 6.60192 -5.0663 7.1566 -4.2967 C 7.70738 -3.53498 8.5043 -3.1561 9.5472 -3.1561 Z"/></symbol><symbol id="k" overflow="visible"><path d=" M 10.5 -3.1562 C 11.5508 -3.1562 12.3516 -3.53511 12.9062 -4.2968 C 13.457 -5.06633 13.7343 -6.1796 13.7343 -7.6406 C 13.7343 -9.0976 13.457 -10.207 12.9062 -10.9687 C 12.3515 -11.7382 11.5507 -12.1249 10.5 -12.1249 C 9.4453 -12.1249 8.6406 -11.7382 8.0781 -10.9687 C 7.52341 -10.1953 7.24998 -9.0859 7.24998 -7.6406 C 7.24998 -6.1914 7.52342 -5.082 8.0781 -4.3125 C 8.6406 -3.53906 9.4453 -3.1563 10.5 -3.1563 Z M 7.25 -13.0781 C 7.92578 -13.9609 8.6719 -14.6172 9.4844 -15.0469 C 10.3047 -15.4727 11.25 -15.6875 12.3125 -15.6875 C 14.207 -15.6875 15.7578 -14.9375 16.9687 -13.4375 C 18.1757 -11.9375 18.7812 -10.0039 18.7812 -7.64062 C 18.7812 -5.28512 18.1757 -3.35942 16.9687 -1.85942 C 15.7578 -0.35942 14.207 0.39058 12.3125 0.39058 C 11.25 0.39058 10.3047 0.17964 9.4844 -0.23442 C 8.6719 -0.6602 7.9258 -1.32032 7.25 -2.21882 L 7.25 -2e-05 L 2.3594 -2e-05 L 2.3594 -21.281 L 7.25 -21.281 Z"/></symbol><symbol id="j" overflow="visible"><path d=" M 0.34375 -15.312 L 5.23435 -15.312 L 9.35935 -4.921 L 12.8594 -15.312 L 17.75 -15.312 L 11.3125 1.454 C 10.664 3.1493 9.91015 4.3368 9.04685 5.0165 C 8.17966 5.704 7.04685 6.0477 5.64065 6.0477 L 2.79685 6.0477 L 2.79685 2.8289 L 4.32805 2.8289 C 5.16008 2.8289 5.76555 2.69218 6.14055 2.42265 C 6.52336 2.16093 6.82024 1.69218 7.03117 1.01645 L 7.17179 0.59457 Z"/></symbol><symbol id="i" overflow="visible"><path d=" M 2.5781 -20.406 L 9.2656 -20.406 L 13.9218 -9.484 L 18.5937 -20.406 L 25.2812 -20.406 L 25.2812 0 L 20.2968 0 L 20.2968 -14.938 L 15.5937 -3.922 L 12.2656 -3.922 L 7.5625 -14.938 L 7.5625 0 L 2.5781 0 Z"/></symbol><symbol id="x" overflow="visible"><path d=" M 6.2188 -7.8281 L 0.7032 -15.3125 L 5.8751 -15.3125 L 9.0157 -10.7813 L 12.1876 -15.3125 L 17.3595 -15.3125 L 11.8439 -7.8594 L 17.6408 0 L 12.4533 0 L 9.0158 -4.8438 L 5.6096 0 L 0.4221 0 Z"/></symbol><symbol id="h" overflow="visible"><path d=" M 2.3594 -15.312 L 7.25 -15.312 L 7.25 0 L 2.3594 0 Z M 2.3594 -21.2808 L 7.25 -21.2808 L 7.25 -17.2808 L 2.3594 -17.2808 Z"/></symbol><symbol id="g" overflow="visible"><path d=" M 16.547 -12.766 C 17.1603 -13.7113 17.8947 -14.4379 18.7501 -14.9379 C 19.6017 -15.4379 20.5392 -15.6879 21.5626 -15.6879 C 23.3204 -15.6879 24.6603 -15.141 25.5782 -14.0473 C 26.504 -12.9614 26.9688 -11.3911 26.9688 -9.3285 L 26.9688 -0.0004 L 22.0469 -0.0004 L 22.0469 -7.9848 L 22.0469 -8.34418 C 22.0547 -8.47699 22.0625 -8.66449 22.0625 -8.90668 C 22.0625 -9.98868 21.8985 -10.77 21.5781 -11.2505 C 21.2656 -11.7388 20.7539 -11.9849 20.0469 -11.9849 C 19.1173 -11.9849 18.3985 -11.5981 17.8907 -10.8287 C 17.379 -10.0669 17.1173 -8.96146 17.1095 -7.51616 L 17.1095 -0.00056 L 12.1876 -0.00056 L 12.1876 -7.98496 C 12.1876 -9.68026 12.0392 -10.7702 11.7501 -11.2506 C 11.4571 -11.7388 10.9376 -11.9849 10.1876 -11.9849 C 9.2501 -11.9849 8.52349 -11.5982 8.01569 -10.8287 C 7.50397 -10.067 7.25007 -8.96934 7.25007 -7.53184 L 7.25007 -0.00064 L 2.32818 -0.00064 L 2.32818 -15.3126 L 7.25007 -15.3126 L 7.25007 -13.0782 C 7.85163 -13.9415 8.53918 -14.5938 9.31258 -15.0313 C 10.0938 -15.4688 10.9532 -15.6876 11.8907 -15.6876 C 12.9532 -15.6876 13.8907 -15.4298 14.7032 -14.922 C 15.5157 -14.4102 16.129 -13.6915 16.547 -12.7658 Z"/></symbol><symbol id="w" overflow="visible"><path d=" M 2.5781 -20.406 L 7.8281 -20.406 L 7.8281 -12.9685 L 15.4219 -20.406 L 21.5313 -20.406 L 11.7032 -10.7498 L 22.5472 0.0002 L 15.9534 0.0002 L 7.8284 -8.0467 L 7.8284 0.0002 L 2.5784 0.0002 Z"/></symbol><symbol id="f" overflow="visible"><path d=" M 2.1875 -5.9688 L 2.1875 -15.3126 L 7.1094 -15.3126 L 7.1094 -13.7814 C 7.1094 -12.9455 7.10159 -11.9064 7.09377 -10.6564 C 7.08206 -9.4064 7.07815 -8.5705 7.07815 -8.1564 C 7.07815 -6.9142 7.1094 -6.0236 7.1719 -5.4845 C 7.24221 -4.94153 7.35159 -4.55091 7.50002 -4.3126 C 7.70705 -3.98838 7.97268 -3.73838 8.2969 -3.5626 C 8.61721 -3.39463 8.98831 -3.3126 9.4063 -3.3126 C 10.4258 -3.3126 11.2266 -3.70322 11.8125 -4.4845 C 12.3945 -5.26575 12.6875 -6.3517 12.6875 -7.7501 L 12.6875 -15.3126 L 17.5781 -15.3126 L 17.5781 -0.0006 L 12.6875 -0.0006 L 12.6875 -2.2194 C 11.9453 -1.32096 11.1641 -0.6608 10.3437 -0.235 C 9.51948 0.17906 8.6093 0.39 7.6093 0.39 C 5.8476 0.39 4.5038 -0.14906 3.5781 -1.235 C 2.64841 -2.317 2.1875 -3.8952 2.1875 -5.9694 Z"/></symbol><symbol id="v" overflow="visible"><path d=" M 2.3594 -21.281 L 7.25 -21.281 L 7.25 0 L 2.3594 0 Z"/></symbol><symbol id="u" overflow="visible"><path d=" M 2.3594 -21.281 L 7.25 -21.281 L 7.25 -9.687 L 12.875 -15.312 L 18.5625 -15.312 L 11.0937 -8.2808 L 19.1562 0.0004 L 13.2187 0.0004 L 7.2499 -6.3902 L 7.2499 0.0004 L 2.3593 0.0004 Z"/></symbol><symbol id="b" overflow="visible"><path d=" M 9.6406 -12.188 C 8.5547 -12.188 7.7265 -11.7974 7.1562 -11.0161 C 6.58198 -10.2348 6.29682 -9.1099 6.29682 -7.6411 C 6.29682 -6.1723 6.58198 -5.0473 7.1562 -4.2661 C 7.72651 -3.49266 8.5546 -3.1099 9.6406 -3.1099 C 10.7031 -3.1099 11.5156 -3.49271 12.0781 -4.2661 C 12.6484 -5.04735 12.9375 -6.1723 12.9375 -7.6411 C 12.9375 -9.1099 12.6484 -10.2349 12.0781 -11.0161 C 11.5156 -11.7973 10.7031 -12.188 9.6406 -12.188 Z M 9.6406 -15.688 C 12.2734 -15.688 14.332 -14.9732 15.8125 -13.5474 C 17.2891 -12.1294 18.0313 -10.1607 18.0313 -7.6412 C 18.0313 -5.1295 17.2891 -3.1607 15.8125 -1.735 C 14.332 -0.317 12.2734 0.39 9.6406 0.39 C 6.9922 0.39 4.9258 -0.31703 3.4375 -1.735 C 1.9453 -3.1608 1.2031 -5.1295 1.2031 -7.6412 C 1.2031 -10.1607 1.94529 -12.1295 3.4375 -13.5474 C 4.9258 -14.9732 6.9922 -15.688 9.6406 -15.688 Z"/></symbol><symbol id="t" overflow="visible"><path d=" M 0.42188 -15.312 L 5.31248 -15.312 L 9.14058 -4.734 L 12.9375 -15.312 L 17.8437 -15.312 L 11.8125 0 L 6.43748 0 Z"/></symbol><symbol id="s" overflow="visible"><path d=" M 12.422 -21.281 L 12.422 -18.0622 L 9.7189 -18.0622 C 9.0314 -18.0622 8.547 -17.9372 8.2658 -17.6872 C 7.99236 -17.4372 7.85955 -16.9997 7.85955 -16.3747 L 7.85955 -15.3122 L 12.0471 -15.3122 L 12.0471 -11.8122 L 7.85955 -11.8122 L 7.85955 -0.0002 L 2.96895 -0.0002 L 2.96895 -11.8122 L 0.53145 -11.8122 L 0.53145 -15.3122 L 2.96895 -15.3122 L 2.96895 -16.3747 C 2.96895 -18.0388 3.42989 -19.2731 4.35955 -20.0778 C 5.28533 -20.8786 6.72675 -21.2809 8.68765 -21.2809 Z"/></symbol><symbol id="r" overflow="visible"><path d=" M 17.75 -9.3281 L 17.75 0 L 12.8281 0 L 12.8281 -7.1094 C 12.8281 -8.4532 12.7969 -9.375 12.7344 -9.875 C 12.6719 -10.375 12.5664 -10.7422 12.4219 -10.9844 C 12.2344 -11.2969 11.9726 -11.5391 11.6406 -11.7188 C 11.3164 -11.8946 10.9453 -11.9844 10.5312 -11.9844 C 9.5078 -11.9844 8.707 -11.586 8.125 -10.7969 C 7.53906 -10.0156 7.25 -8.9258 7.25 -7.5313 L 7.25 -0.0001 L 2.3594 -0.0001 L 2.3594 -21.2811 L 7.25 -21.2811 L 7.25 -13.078 C 7.98828 -13.9608 8.7695 -14.6171 9.5938 -15.0468 C 10.4258 -15.4726 11.3438 -15.6874 12.3438 -15.6874 C 14.1133 -15.6874 15.4571 -15.1405 16.375 -14.0468 C 17.2891 -12.9609 17.75 -11.3906 17.75 -9.32802 Z"/></symbol><symbol id="q" overflow="visible"><path d=" M 2.5781 -20.406 L 8.4531 -20.406 L 15.875 -6.406 L 15.875 -20.406 L 20.8594 -20.406 L 20.8594 0 L 14.9844 0 L 7.5625 -14 L 7.5625 0 L 2.5781 0 Z"/></symbol><symbol id="p" overflow="visible"><path d=" M 17.75 -9.3281 L 17.75 0 L 12.8281 0 L 12.8281 -7.1406 C 12.8281 -8.4609 12.7969 -9.375 12.7344 -9.875 C 12.6719 -10.375 12.5664 -10.7422 12.4219 -10.9844 C 12.2344 -11.2969 11.9726 -11.5391 11.6406 -11.7188 C 11.3164 -11.8946 10.9453 -11.9844 10.5312 -11.9844 C 9.5078 -11.9844 8.707 -11.586 8.125 -10.7969 C 7.53906 -10.0156 7.25 -8.9258 7.25 -7.5313 L 7.25 -0.0001 L 2.3594 -0.0001 L 2.3594 -15.3121 L 7.25 -15.3121 L 7.25 -13.0777 C 7.98828 -13.9605 8.7695 -14.6168 9.5938 -15.0465 C 10.4258 -15.4723 11.3438 -15.6871 12.3438 -15.6871 C 14.1133 -15.6871 15.4571 -15.1402 16.375 -14.0465 C 17.2891 -12.9606 17.75 -11.3903 17.75 -9.32772 Z"/></symbol><symbol id="o" overflow="visible"><path d=" M 2.5781 -20.406 L 11.3125 -20.406 C 13.9063 -20.406 15.8945 -19.8279 17.2813 -18.6716 C 18.6758 -17.5232 19.3751 -15.8825 19.3751 -13.7497 C 19.3751 -11.613 18.6759 -9.9685 17.2813 -8.8122 C 15.8946 -7.656 13.9063 -7.0778 11.3125 -7.0778 L 7.8281 -7.0778 L 7.8281 0.0003 L 2.5781 0.0003 Z M 7.8281 -16.5935 L 7.8281 -10.8904 L 10.75 -10.8904 C 11.7695 -10.8904 12.5547 -11.1404 13.1094 -11.6404 C 13.6719 -12.1404 13.9531 -12.8435 13.9531 -13.7498 C 13.9531 -14.6639 13.6719 -15.367 13.1094 -15.8592 C 12.5547 -16.3475 11.7696 -16.5936 10.75 -16.5936 Z"/></symbol><symbol id="n" overflow="visible"><path d=" M 2.3594 -15.312 L 7.25 -15.312 L 7.25 -0.281 C 7.25 1.7698 6.75391 3.3362 5.7656 4.4221 C 4.78513 5.5041 3.3594 6.0471 1.4844 6.0471 L -0.9375 6.0471 L -0.9375 2.8283 L -0.07812 2.8283 C 0.84766 2.8283 1.48438 2.61736 1.82808 2.2033 C 2.17964 1.78533 2.35933 0.9572 2.35933 -0.2811 Z M 2.3594 -21.2808 L 7.25 -21.2808 L 7.25 -17.2808 L 2.3594 -17.2808 Z"/></symbol><symbol id="m" overflow="visible"><path d=" M 14.719 -14.828 L 14.719 -10.8436 C 14.0627 -11.3006 13.3948 -11.6405 12.719 -11.8592 C 12.051 -12.0779 11.3596 -12.1873 10.6409 -12.1873 C 9.2737 -12.1873 8.2073 -11.785 7.4378 -10.9842 C 6.67608 -10.1912 6.2972 -9.07802 6.2972 -7.64042 C 6.2972 -6.21072 6.67611 -5.09742 7.4378 -4.29662 C 8.20733 -3.50365 9.2737 -3.10912 10.6409 -3.10912 C 11.3987 -3.10912 12.1253 -3.2185 12.8128 -3.43724 C 13.5003 -3.6638 14.1331 -4.00365 14.719 -4.45284 L 14.719 -0.45284 C 13.9573 -0.17159 13.1799 0.03544 12.3909 0.17216 C 11.6096 0.31669 10.8167 0.39091 10.0159 0.39091 C 7.2542 0.39091 5.094 -0.31612 3.5315 -1.73409 C 1.9768 -3.14819 1.2034 -5.11689 1.2034 -7.64029 C 1.2034 -10.1715 1.97684 -12.1442 3.5315 -13.5622 C 5.094 -14.9763 7.2542 -15.6872 10.0159 -15.6872 C 10.8167 -15.6872 11.6097 -15.613 12.3909 -15.4684 C 13.1721 -15.3317 13.9456 -15.1169 14.719 -14.8278 Z"/></symbol></defs><g><path d=" M 358.4 265.22 L 509.16 265.22 L 509.16 229.603 L 358.4 229.603 Z M 412.005 239.009 L 455.564 239.009 L 455.564 255.81 L 412.005 255.81 Z"/><path d=" M 350 28 C 210.82 28 98 140.82 98 280 C 98 419.18 210.82 532 350 532 C 489.18 532 602 419.18 602 280 C 602 140.82 489.18 28 350 28 Z M 546 196.22 L 525.957 196.22 L 525.957 402.99 L 509.156 402.99 L 509.156 386.869 L 349.996 386.865 C 345.355 386.865 341.598 383.103 341.598 378.467 L 341.598 229.607 L 190.838 229.607 L 190.838 402.987 L 174.037 402.987 L 174.037 196.227 L 153.994 196.227 L 153.994 179.426 L 545.994 179.426 Z"/><path d=" M 358.4 317.64 L 509.16 317.64 L 509.16 282.023 L 358.4 282.023 Z M 412.005 291.425 L 455.564 291.425 L 455.564 308.226 L 412.005 308.226 Z"/><path d=" M 358.4 370.06 L 509.16 370.06 L 509.16 334.443 L 358.4 334.443 Z M 412.005 343.845 L 455.564 343.845 L 455.564 360.646 L 412.005 360.646 Z"/><path d=" M 190.84 212.8 L 509.15 212.8 L 509.15 196.214 L 190.84 196.214 Z"/><use x="70" y="644" width="100%" height="100%" xlink:href="#y"></use><use x="90.5508" y="644" width="100%" height="100%" xlink:href="#d"></use><use x="104.359" y="644" width="100%" height="100%" xlink:href="#a"></use><use x="123.348" y="644" width="100%" height="100%" xlink:href="#e"></use><use x="142.242" y="644" width="100%" height="100%" xlink:href="#c"></use><use x="155.629" y="644" width="100%" height="100%" xlink:href="#a"></use><use x="174.617" y="644" width="100%" height="100%" xlink:href="#l"></use><use x="204.41" y="644" width="100%" height="100%" xlink:href="#k"></use><use x="224.453" y="644" width="100%" height="100%" xlink:href="#j"></use><use x="252.453" y="644" width="100%" height="100%" xlink:href="#i"></use><use x="280.312" y="644" width="100%" height="100%" xlink:href="#e"></use><use x="299.211" y="644" width="100%" height="100%" xlink:href="#x"></use><use x="317.27" y="644" width="100%" height="100%" xlink:href="#h"></use><use x="326.867" y="644" width="100%" height="100%" xlink:href="#g"></use><use x="365.789" y="644" width="100%" height="100%" xlink:href="#w"></use><use x="387.488" y="644" width="100%" height="100%" xlink:href="#f"></use><use x="407.422" y="644" width="100%" height="100%" xlink:href="#v"></use><use x="417.02" y="644" width="100%" height="100%" xlink:href="#h"></use><use x="426.617" y="644" width="100%" height="100%" xlink:href="#u"></use><use x="445.238" y="644" width="100%" height="100%" xlink:href="#b"></use><use x="464.477" y="644" width="100%" height="100%" xlink:href="#t"></use><use x="70" y="672" width="100%" height="100%" xlink:href="#s"></use><use x="82.1836" y="672" width="100%" height="100%" xlink:href="#d"></use><use x="95.9922" y="672" width="100%" height="100%" xlink:href="#b"></use><use x="115.227" y="672" width="100%" height="100%" xlink:href="#g"></use><use x="154.152" y="672" width="100%" height="100%" xlink:href="#c"></use><use x="167.535" y="672" width="100%" height="100%" xlink:href="#r"></use><use x="187.469" y="672" width="100%" height="100%" xlink:href="#a"></use><use x="216.207" y="672" width="100%" height="100%" xlink:href="#q"></use><use x="239.641" y="672" width="100%" height="100%" xlink:href="#b"></use><use x="258.879" y="672" width="100%" height="100%" xlink:href="#f"></use><use x="278.812" y="672" width="100%" height="100%" xlink:href="#p"></use><use x="308.492" y="672" width="100%" height="100%" xlink:href="#o"></use><use x="329.016" y="672" width="100%" height="100%" xlink:href="#d"></use><use x="342.82" y="672" width="100%" height="100%" xlink:href="#b"></use><use x="362.059" y="672" width="100%" height="100%" xlink:href="#n"></use><use x="371.656" y="672" width="100%" height="100%" xlink:href="#a"></use><use x="390.648" y="672" width="100%" height="100%" xlink:href="#m"></use><use x="407.242" y="672" width="100%" height="100%" xlink:href="#c"></use></g></svg>